IKResults																		
version=1																		
nRows=39																		
nColumns=19																		
inDegrees=yes																		
																		
"Units are S.I. units (second, meters, Newtons, ...)"																		
"If the header above contains a line with 'inDegrees', this indicates whether rotational values are in degrees (yes) or radians (no)."																		
																		
endheader																		
time	pelvis_tilt	pelvis_list	pelvis_rotation	pelvis_tx	pelvis_ty	pelvis_tz	hip_flexion_r	hip_adduction_r	hip_rotation_r	knee_angle_r	knee_angle_r_beta	ankle_angle_r	hip_flexion_l	hip_adduction_l	hip_rotation_l	knee_angle_l	knee_angle_l_beta	ankle_angle_l
5.27	1.52315435	6.88986914	168.8630314	0	0.84076917	-0.40802223	18.56774553	-2.97917759	-9.82016484	61.20868214	1.06829303	8.7280326	13.83642351	-9.70659073	-15.79146949	0.24068985	0.00420083	4.14707625
5.28	1.85963658	7.27387203	168.7149745	0	0.84069538	-0.40808897	19.77639907	-2.26002618	-10.28715787	60.43696449	1.05482402	9.8102278	13.75675604	-10.14460699	-15.89596041	0.24943381	0.00435344	4.68064354
5.29	2.00536443	7.50533993	168.5622029	0	0.84070929	-0.40801497	20.8054086	-1.82975651	-10.84426539	59.50398522	1.03854046	10.22195017	13.49852028	-10.35895586	-16.02693188	0.24554625	0.00428559	4.99876389
5.3	2.1332768	7.74436004	168.4120369	0	0.84073084	-0.40799692	21.73078492	-1.38273691	-11.4399796	58.32267	1.01792262	10.48346957	13.22029669	-10.57687228	-16.1364647	0.24190371	0.00422202	5.30870845
5.31	2.25564741	7.97310133	168.2743813	0	0.84071831	-0.40802102	22.57624508	-0.95064236	-12.08437771	56.93942486	0.99378044	10.66162183	12.94246211	-10.78688434	-16.2456547	0.23905144	0.00417223	5.61381757
5.32	2.36305552	8.19845554	168.1475968	0	0.84068872	-0.40806118	23.32806585	-0.52264692	-12.7633614	55.36193683	0.96624808	10.71919111	12.64775213	-10.98554847	-16.34183339	0.23691003	0.00413486	5.91538749
5.33	2.44889436	8.40051617	168.0298106	0	0.84064364	-0.40812604	23.99491391	-0.13125858	-13.48023917	53.63204787	0.93605582	10.69342086	12.33749086	-11.15536417	-16.43117168	0.23465733	0.00409554	6.20583626
5.34	2.52730916	8.59055417	167.9193379	0	0.84056078	-0.40822197	24.58552983	0.25190172	-14.20725506	51.75686832	0.90332776	10.58141573	12.02313303	-11.30511462	-16.49423969	0.2338216	0.00408096	6.48454661
5.35	2.52319658	8.78060365	167.8415959	0	0.84053032	-0.40835362	25.02379391	0.60323497	-15.00238368	49.76322618	0.86853214	10.39006384	11.62130556	-11.45005841	-16.5862001	0.23270493	0.00406147	6.759219
5.36	2.69953199	8.8913426	167.7067375	0	0.84024822	-0.40856897	25.6446064	0.95229298	-15.70311385	47.71703442	0.83281936	10.14088279	11.4240425	-11.5310969	-16.6067592	0.23396206	0.00408341	7.02445623
5.37	2.76385193	9.0140512	167.6165441	0	0.84005723	-0.4087783	26.08005248	1.28656584	-16.43463	45.56610114	0.79527849	9.75670026	11.10803116	-11.60089553	-16.62901653	0.23581058	0.00411567	7.27339177
5.38	2.89962244	9.10882683	167.5085604	0	0.83973024	-0.40912322	26.56844329	1.64497033	-17.11068527	43.38507439	0.75721239	9.33204329	10.87326468	-11.67142388	-16.64345148	0.2364959	0.00412763	7.52935587
5.39	2.97626392	9.19794676	167.4196424	0	0.83944647	-0.40946661	26.95266815	1.99373304	-17.76670782	41.15596309	0.71830706	8.78885553	10.57417865	-11.71933763	-16.66085628	0.24015816	0.00419155	7.76474066
5.4	2.94217538	9.31434855	167.3604855	0	0.83925306	-0.40988526	27.17273992	2.37736396	-18.36925622	38.880845	0.67859876	8.18025357	10.14984331	-11.79179301	-16.73193479	0.24281509	0.00423792	7.98984853
5.41	3.15270566	9.32246587	167.2411793	0	0.83871409	-0.41042228	27.68418917	2.75765323	-18.7851548	36.66455985	0.63991729	7.5640627	10.00711937	-11.79420917	-16.73485683	0.2462031	0.00429705	8.22803125
5.42	3.22483444	9.39535993	167.1771418	0	0.83834675	-0.41099137	27.98067048	3.19001869	-19.15343015	34.39807327	0.60035963	6.85611625	9.70363237	-11.859655	-16.8152281	0.2520437	0.00439899	8.446251
5.43	3.33649624	9.41556667	167.0928512	0	0.83787298	-0.41167056	28.31767131	3.63562725	-19.29358359	32.16965729	0.56146644	6.20502136	9.45035777	-11.8802842	-16.88340932	0.25485389	0.00444804	8.66013787
5.44	3.50292495	9.12906427	167.0429835	0	0.83711527	-0.41227446	28.85546811	3.75174469	-19.24258885	30.20066522	0.52710104	5.9226057	9.34080541	-11.57426604	-16.96947402	0.25954006	0.00452983	8.88156529
5.45	3.76877154	9.33915024	166.9223485	0	0.8365614	-0.41324097	29.17938649	4.53760959	-18.99401082	27.87021444	0.48642701	5.0726066	9.19011899	-11.85630617	-16.97924504	0.26261208	0.00458345	9.11537369
5.46	3.914946	9.34408734	166.8740997	0	0.8359776	-0.41412171	29.42536679	5.05514877	-18.5652539	25.70022483	0.44855354	4.57679544	8.96930348	-11.90743982	-17.09354595	0.26727715	0.00466487	9.31567081
5.47	4.0382433	9.35549315	166.8523299	0	0.83538424	-0.41504623	29.6031359	5.58588331	-17.88644323	23.5776329	0.41150732	4.15346474	8.72468582	-11.97666957	-17.26069491	0.27180227	0.00474384	9.50497992
5.48	4.1860652	9.33299111	166.8436227	0	0.83474695	-0.41602647	29.75195718	6.08580919	-16.97858693	21.50847119	0.37539364	3.85908878	8.50899474	-12.00780371	-17.3788288	0.27455125	0.00479182	9.68883258
5.49	4.40669273	9.26093233	166.8876173	0	0.83396505	-0.41698138	29.94116935	6.50993802	-15.88564503	19.53794678	0.3410015	3.69798715	8.39432451	-11.99203243	-17.41193107	0.27812863	0.00485426	9.89750334
5.5	4.43085358	9.29502163	166.9277468	0	0.83342856	-0.41803009	29.77837402	7.01544448	-14.55257944	17.52941436	0.305946	3.50103595	8.02427462	-12.08389864	-17.6016855	0.28270917	0.00493421	10.02689419
5.51	4.66973479	9.20298424	167.0465298	0	0.83256187	-0.41897843	29.86146008	7.33070095	-13.15594801	15.74561943	0.2748129	3.43957075	7.93991532	-12.03658311	-17.54579129	0.28375234	0.00495241	10.23581509
5.52	4.77460802	9.16198619	167.1862849	0	0.83185473	-0.41996363	29.6939124	7.6373792	-11.62116365	13.99636358	0.24428263	3.32965277	7.68324493	-12.04356257	-17.59673978	0.28568226	0.0049861	10.38276259
5.53	4.7385612	9.20871998	167.3503279	0	0.83128752	-0.42098607	29.30851446	7.9495146	-10.08617771	12.39472378	0.21632874	3.16914351	7.24111813	-12.14416153	-17.74282821	0.28989207	0.00505957	10.50200947
5.54	4.90537593	9.10421985	167.5773551	0	0.83039913	-0.42190763	29.23147917	8.03159344	-8.69539303	11.14184172	0.19446182	3.08960939	7.0805776	-12.06344496	-17.61256382	0.28938316	0.00505069	10.67384044
5.55	4.86965764	9.13445674	167.7882871	0	0.82979996	-0.4229221	28.84627203	8.19424537	-7.32917139	9.98970169	0.17435319	2.84131131	6.64003807	-12.14086961	-17.69642268	0.29245651	0.00510433	10.7765338
5.56	4.97944319	9.0463722	168.0524775	0	0.82897067	-0.42385467	28.75575971	8.1643169	-6.27796336	9.2643967	0.16169423	2.65627016	6.40624251	-12.0710037	-17.54609862	0.29280532	0.00511042	10.91094161
5.57	5.10030215	9.02971446	168.3441117	0	0.82808007	-0.42479977	28.91669073	8.087748	-6.15835092	9.22640877	0.16103121	2.61665078	6.17176212	-12.15044279	-17.592754	0.30923561	0.00539718	10.95326042
5.58	5.12709475	8.8895013	168.5547027	0	0.82740891	-0.4258623	28.74136264	7.99934845	-5.09514882	8.84623061	0.15439585	2.0556838	5.82825202	-11.96558107	-17.28708284	0.29230333	0.00510166	11.0938635
5.59	5.21681083	8.94582201	168.7979537	0	0.82669543	-0.42697393	28.76026212	8.02747988	-4.77128069	8.96023225	0.15638555	1.77596422	5.51585073	-12.08629053	-17.17058321	0.30090343	0.00525176	11.10964321
5.6	5.15840358	8.96034891	169.0357848	0	0.82620769	-0.42811254	28.61758966	7.99329111	-4.56461533	9.13857044	0.15949814	1.11713444	5.0403586	-12.11599845	-17.01180729	0.29868408	0.00521302	11.1561327
5.61	5.24591063	9.03849402	169.2588213	0	0.82562341	-0.42940091	28.66487718	8.04522449	-4.38074179	9.55712728	0.16680334	0.74933878	4.71127737	-12.26423792	-16.82161315	0.30911585	0.00539509	11.11595552
5.62	5.19436773	9.01147293	169.5087805	0	0.82518536	-0.43054423	28.83751617	7.86727681	-5.08495337	10.46531116	0.18265414	0.07437402	4.26427186	-12.23041399	-16.52030915	0.30602389	0.00534112	11.06231735
5.63	5.26600487	9.1173565	169.6692588	0	0.82477049	-0.43202067	28.89514728	7.96330922	-5.00657918	11.07791778	0.19334614	-0.36664373	3.89532603	-12.39317056	-16.23276874	0.31731033	0.00553811	10.96717759
5.64	5.14671402	9.04556717	169.9027653	0	0.82451999	-0.43323231	29.13543398	7.66633347	-6.15423092	12.33218318	0.2152372	-1.06172985	3.38196955	-12.2978829	-15.87863919	0.31594776	0.00551433	10.76341512
5.65	5.24833934	9.01050928	170.132896	0	0.82414413	-0.43460246	29.50370114	7.46628026	-6.91869301	13.48011487	0.23527239	-1.39440116	3.11435565	-12.2583315	-15.29112136	0.32682694	0.00570421	10.56227708
